<?xml version="1.0" encoding="UTF-8"?>
<svg xmlns="http://www.w3.org/2000/svg" xmlns:xlink="http://www.w3.org/1999/xlink" width="2666px" height="1999px" viewBox="0 0 1500 1125" version="1.1">
<g id="surface1">
<path style=" stroke:none;fill-rule:nonzero;fill:rgb(0%,0%,0%);fill-opacity:1;" d="M 300 384.824219 C 292.273438 385.425781 255.074219 390 238.648438 392.324219 C 232.5 393.226562 232.425781 393.300781 232.800781 395.175781 C 233.476562 398.25 234.675781 420.75 235.5 444.75 C 236.925781 485.925781 237.75 542.625 238.125 630.898438 C 238.351562 679.273438 238.726562 721.949219 238.949219 725.699219 L 239.398438 732.523438 L 267.226562 733.050781 C 304.125 733.726562 319.351562 732.523438 330.75 728.023438 L 334.875 726.375 L 334.875 714.375 C 334.875 707.773438 334.199219 690.898438 333.523438 676.875 C 332.773438 662.851562 332.25 646.199219 332.398438 639.898438 L 332.625 628.351562 L 339.523438 639.898438 C 352.125 661.050781 368.324219 693.074219 377.699219 715.425781 C 379.949219 720.75 381.074219 722.625 382.5 723.148438 C 386.175781 724.648438 386.625 725.023438 388.5 728.699219 L 390.375 732.375 L 400.125 733.050781 C 409.125 733.648438 450.300781 732.75 469.648438 731.476562 L 476.851562 731.023438 L 476.101562 729.300781 C 475.648438 728.324219 475.425781 727.273438 475.648438 727.050781 C 475.875 726.824219 477.976562 726.449219 480.300781 726.226562 L 484.5 725.773438 L 484.050781 731.25 L 483.523438 736.648438 L 485.699219 736.199219 C 493.726562 734.550781 501.074219 734.25 526.800781 734.699219 C 550.800781 735.148438 555.601562 735 561.675781 733.949219 C 568.800781 732.675781 575.25 730.425781 576.75 728.550781 C 577.425781 727.875 577.425781 723.601562 576.824219 712.726562 C 574.351562 669.226562 574.351562 614.476562 576.75 509.25 C 577.125 491.699219 577.648438 459.898438 577.949219 438.523438 L 578.476562 399.75 L 568.5 399.75 L 568.5 390 L 545.851562 390 C 533.324219 390 520.050781 389.625 516.226562 389.25 C 506.550781 388.199219 480.898438 388.050781 480 388.949219 C 479.175781 389.773438 477.675781 404.925781 476.101562 428.25 C 474.75 448.351562 474.824219 517.125 476.25 555.375 C 478.273438 609.824219 477.449219 700.574219 474.824219 721.648438 L 474.375 725.476562 L 471.074219 717.300781 C 462.148438 695.023438 453.148438 679.425781 425.175781 637.5 C 406.425781 609.375 396 593.023438 396 591.675781 C 396 591.300781 396.976562 591 398.101562 591 C 405.449219 591 421.050781 584.699219 429.824219 578.175781 C 455.699219 558.976562 472.273438 520.273438 468.074219 488.773438 C 465 465.898438 449.625 436.949219 430.125 417.300781 C 412.273438 399.375 392.324219 390.601562 358.050781 385.800781 C 348.148438 384.375 312.523438 383.773438 300 384.824219 Z M 342.75 389.25 C 369.300781 390.898438 378.523438 392.324219 389.625 396.523438 C 430.800781 411.976562 458.699219 456.375 453.75 498.824219 C 448.875 541.574219 423 571.726562 386.625 577.199219 C 382.5 577.800781 379.050781 578.398438 378.976562 578.550781 C 378.449219 579.074219 389.851562 597.074219 414.75 634.875 C 433.648438 663.601562 442.726562 678.523438 449.101562 691.125 C 453.300781 699.601562 459 712.425781 460.050781 715.949219 C 460.5 717.449219 460.199219 717.523438 439.726562 718.351562 C 416.925781 719.324219 399.675781 719.476562 390.375 718.800781 L 384.375 718.273438 L 379.199219 706.574219 C 372.300781 690.824219 354.148438 654.523438 346.875 642 C 340.574219 630.976562 329.324219 614.101562 323.550781 606.898438 C 320.550781 603.148438 319.800781 602.550781 319.199219 603.523438 C 317.175781 607.125 318 664.875 320.625 699.75 C 321.375 710.324219 321.449219 713.699219 320.773438 714.148438 C 314.925781 717.976562 284.101562 720.148438 255.523438 718.875 L 242.851562 718.351562 L 243.375 677.699219 C 243.898438 634.875 242.773438 500.023438 241.5 455.625 C 240.75 429.074219 239.625 405.675781 238.800781 400.050781 L 238.351562 396.976562 L 242.023438 396.449219 C 292.351562 389.398438 317.398438 387.601562 342.75 389.25 Z M 514.125 394.125 C 525.300781 394.726562 541.125 395.25 549.300781 395.25 L 564.226562 395.25 L 563.773438 438.523438 C 563.476562 462.375 562.875 495.898438 562.351562 513 C 561.074219 557.476562 561.148438 666 562.425781 693.898438 C 563.25 711.898438 563.25 716.476562 562.5 717.375 C 561.976562 717.976562 559.648438 719.101562 557.324219 719.851562 C 552.75 721.199219 537.226562 721.5 498.449219 720.75 L 479.851562 720.375 L 480.300781 713.25 C 482.625 678.601562 482.851562 628.5 481.050781 571.425781 C 479.476562 525.375 479.324219 449.625 480.601562 429 C 481.574219 413.398438 482.773438 399.449219 483.449219 395.398438 L 483.824219 393 L 488.851562 393 C 491.625 393 503.023438 393.523438 514.125 394.125 Z M 514.125 394.125 "/>
<path style=" stroke:none;fill-rule:nonzero;fill:rgb(0%,0%,0%);fill-opacity:1;" d="M 332.25 454.199219 C 331.199219 454.351562 328.050781 454.875 325.199219 455.324219 C 320.851562 456.074219 311.851562 458.699219 306.601562 460.875 C 305.476562 461.324219 305.324219 462.148438 305.699219 466.726562 C 305.925781 469.726562 306.375 482.324219 306.675781 494.851562 C 307.050781 507.375 307.5 517.726562 307.648438 517.949219 C 307.875 518.101562 313.800781 518.699219 320.925781 519.148438 C 330.601562 519.824219 335.925781 519.75 342.601562 519.148438 C 364.574219 516.976562 372.976562 509.699219 374.023438 491.925781 C 375.148438 474 366.148438 460.351562 350.25 455.699219 C 346.125 454.5 335.699219 453.601562 332.25 454.199219 Z M 359.101562 469.875 C 363.675781 471.75 367.949219 476.925781 369.074219 481.875 C 371.25 491.625 368.550781 503.023438 362.699219 508.726562 C 357.898438 513.300781 354.976562 513.898438 336.601562 514.351562 L 320.25 514.648438 L 320.101562 497.699219 C 320.023438 488.398438 319.949219 479.175781 319.875 477.226562 L 319.875 473.773438 L 324 472.351562 C 336.449219 468 351.824219 466.875 359.101562 469.875 Z M 359.101562 469.875 "/>
<path style=" stroke:none;fill-rule:nonzero;fill:rgb(0%,0%,0%);fill-opacity:1;" d="M 976.875 389.023438 C 969.300781 389.550781 954.976562 391.574219 948.375 393.148438 L 941.625 394.648438 L 941.625 440.550781 C 941.625 471.75 941.324219 490.800781 940.574219 500.25 C 940.050781 507.898438 939.523438 514.199219 939.449219 514.273438 C 939 514.800781 925.425781 516.074219 916.5 516.523438 L 905.476562 516.976562 L 904.574219 511.050781 C 902.25 495.449219 900.523438 473.773438 899.25 441.75 C 898.800781 431.25 898.125 418.875 897.75 414.375 C 897.300781 409.800781 897 405.523438 897 404.851562 C 897 403.949219 895.875 403.351562 892.949219 402.75 C 889.125 402 888.75 401.699219 887.25 398.550781 C 884.550781 393.074219 881.398438 391.875 870.375 392.023438 C 865.425781 392.101562 856.050781 392.550781 849.523438 393 C 840.300781 393.675781 836.023438 393.675781 830.398438 393 C 819.523438 391.648438 819.449219 391.648438 818.925781 397.5 C 817.648438 410.550781 818.550781 526.351562 820.5 601.125 C 822.300781 670.648438 824.851562 726 826.199219 726 C 826.351562 726 828 725.25 829.875 724.351562 C 831.675781 723.449219 833.398438 722.851562 833.550781 723.074219 C 833.773438 723.300781 834.148438 726.148438 834.449219 729.523438 L 834.976562 735.601562 L 839.550781 733.648438 C 843.601562 731.925781 845.175781 731.699219 853.125 731.699219 C 858.074219 731.625 868.050781 731.925781 875.25 732.300781 C 889.574219 733.050781 895.949219 732.375 902.398438 729.601562 C 905.023438 728.476562 906 727.648438 906.300781 726.148438 C 908.476562 715.273438 908.625 710.476562 908.625 659.101562 C 908.625 630 908.851562 605.925781 909.074219 605.699219 C 910.726562 604.050781 928.726562 602.625 938.398438 603.375 L 945.523438 603.898438 L 945.976562 610.351562 C 946.273438 613.949219 946.800781 627.148438 947.25 639.75 C 948.601562 679.875 949.574219 699.824219 950.625 711.375 C 951.226562 717.523438 951.75 722.851562 951.75 723.148438 C 951.75 723.523438 953.625 723.75 955.875 723.75 L 959.925781 723.75 L 960.449219 728.25 C 960.75 730.726562 961.125 732.898438 961.425781 733.050781 C 961.648438 733.199219 974.699219 733.050781 990.375 732.675781 C 1015.351562 732.148438 1033.351562 730.875 1034.699219 729.601562 C 1035.449219 728.851562 1022.699219 399.375 1021.875 398.851562 C 1021.5 398.550781 1019.324219 398.25 1017.226562 398.25 L 1013.25 398.25 L 1013.25 389.476562 L 1009.800781 388.949219 C 1006.273438 388.5 984 388.5 976.875 389.023438 Z M 1008.523438 394.050781 C 1008.675781 394.199219 1020.75 707.699219 1020.75 712.199219 C 1020.75 715.949219 1020.675781 716.101562 1018.425781 716.550781 C 1013.25 717.523438 993.898438 718.574219 975.601562 718.726562 L 956.324219 718.875 L 955.949219 716.625 C 954.523438 709.273438 953.175781 684.601562 952.5 656.023438 C 951.824219 625.125 950.773438 603.675781 949.648438 595.125 C 949.125 591.523438 949.050781 591.375 946.125 590.925781 C 932.101562 588.523438 914.101562 588.601562 900.523438 591.074219 C 895.648438 591.976562 895.5 592.050781 894.976562 594.675781 C 894.601562 596.175781 894.449219 618.148438 894.601562 643.5 C 894.75 684.898438 894.226562 704.101562 892.800781 713.398438 C 892.050781 717.675781 888.824219 718.648438 875.25 718.648438 C 869.25 718.648438 861.375 718.273438 857.625 717.824219 C 849.226562 716.851562 834.75 716.773438 832.199219 717.75 C 830.550781 718.351562 830.25 718.199219 829.949219 716.773438 C 828.449219 709.949219 825.824219 636.898438 824.25 558.523438 C 823.199219 508.425781 822.976562 398.476562 823.949219 397.5 C 824.398438 397.050781 825.75 397.050781 827.625 397.574219 C 829.800781 398.175781 834.824219 398.175781 846.449219 397.5 C 861.375 396.601562 878.101562 396.824219 881.699219 397.875 C 883.125 398.324219 883.351562 399.226562 884.175781 407.101562 C 885.148438 417.449219 886.125 433.800781 887.25 458.25 C 888.449219 483.75 891.226562 513.976562 892.875 518.699219 C 893.324219 520.125 902.175781 521.25 913.125 521.25 C 923.773438 521.25 939.675781 520.050781 942.449219 519 C 943.800781 518.476562 944.023438 517.351562 944.851562 505.726562 C 946.875 478.875 947.476562 450.601562 946.574219 424.648438 C 946.125 410.851562 945.898438 399.300781 946.125 399 C 947.101562 397.351562 965.101562 394.5 979.125 393.75 C 987.300781 393.300781 1007.773438 393.523438 1008.523438 394.050781 Z M 1008.523438 394.050781 "/>
<path style=" stroke:none;fill-rule:nonzero;fill:rgb(0%,0%,0%);fill-opacity:1;" d="M 680.699219 393.074219 C 668.023438 394.5 655.726562 398.398438 643.5 404.699219 C 619.648438 417.074219 600.300781 439.648438 592.125 464.625 C 588.375 476.25 587.625 481.574219 587.625 497.25 C 587.699219 510.675781 587.851562 512.550781 589.726562 520.125 C 594.75 540 604.425781 555.898438 621.300781 572.023438 C 638.925781 588.898438 647.398438 593.324219 669.375 597.375 C 700.648438 603.074219 711.226562 608.175781 714.449219 619.199219 C 716.101562 624.824219 715.574219 632.925781 713.398438 637.273438 C 709.875 644.023438 701.851562 648.148438 691.875 648.226562 C 680.175781 648.300781 673.800781 644.175781 672.375 635.625 C 671.101562 627.976562 671.476562 628.5 667.5 628.5 C 663.449219 628.5 663.300781 628.273438 662.550781 622.574219 L 662.101562 618.976562 L 631.574219 618.449219 C 612.375 618.074219 598.351562 618.226562 593.625 618.675781 C 589.5 619.125 585.375 619.5 584.476562 619.5 C 582.976562 619.5 582.898438 619.949219 582.375 628.273438 C 580.875 652.351562 590.175781 674.699219 610.125 694.800781 C 643.273438 728.175781 698.101562 743.324219 739.5 730.5 C 768.074219 721.648438 791.476562 699.601562 801.976562 671.625 C 806.625 659.324219 808.5 648.074219 808.574219 633 C 808.574219 621.148438 807.226562 612.601562 803.925781 603.300781 C 790.949219 566.550781 757.273438 534.148438 718.648438 521.25 C 713.476562 519.523438 704.925781 517.425781 698.550781 516.375 C 682.875 513.675781 681 512.324219 681 503.175781 C 681 493.726562 684.75 487.648438 692.925781 483.898438 C 698.699219 481.273438 707.773438 481.199219 713.023438 483.824219 C 718.425781 486.601562 719.476562 488.550781 719.851562 496.648438 C 720.074219 500.625 720.523438 503.851562 721.050781 504.148438 C 721.5 504.449219 723.675781 505.050781 725.773438 505.5 L 729.75 506.324219 L 729.523438 509.851562 L 729.375 513.375 L 737.625 515.175781 C 744.976562 516.75 747.898438 516.898438 765.375 517.050781 C 780.75 517.125 787.351562 516.824219 796.648438 515.625 L 808.425781 514.199219 L 809.25 509.25 C 813 488.101562 810.824219 467.101562 803.324219 451.050781 C 794.550781 432.375 777.449219 415.875 756.449219 405.75 C 734.101562 395.023438 705.300781 390.226562 680.699219 393.074219 Z M 707.101562 397.5 C 750.148438 400.800781 781.875 419.925781 792.226562 448.949219 C 796.726562 461.476562 798.226562 477.300781 796.273438 491.550781 C 795.675781 496.050781 794.773438 499.949219 794.25 500.25 C 793.199219 500.925781 789.898438 501.375 776.25 502.949219 C 759.523438 504.824219 741 504.074219 728.851562 501 L 725.625 500.175781 L 725.550781 494.398438 C 725.550781 486.75 723.449219 482.023438 718.050781 477.074219 C 705 465.148438 684 464.773438 672.976562 476.324219 C 668.699219 480.824219 667.125 485.398438 667.199219 493.5 C 667.199219 502.574219 668.925781 506.925781 674.699219 512.175781 C 679.425781 516.523438 684.601562 518.699219 693.75 520.199219 C 709.425781 522.898438 713.324219 523.726562 720.523438 526.125 C 756.148438 537.976562 785.175781 569.324219 792.898438 604.273438 C 795 613.875 795.148438 633.449219 793.199219 644.175781 C 789.675781 663.601562 781.648438 679.800781 769.125 692.925781 C 762.300781 700.050781 757.425781 703.875 749.550781 708.375 C 718.574219 726.074219 675.976562 725.324219 638.324219 706.425781 C 626.398438 700.425781 617.773438 694.125 609.300781 685.351562 C 594.675781 670.125 588.300781 655.273438 587.476562 634.425781 L 587.023438 624.226562 L 592.199219 623.625 C 598.351562 622.949219 629.324219 622.949219 645.898438 623.699219 L 657.601562 624.148438 L 658.125 627.75 C 660.226562 643.050781 676.199219 654.226562 694.125 653.023438 C 702.226562 652.425781 707.773438 650.25 712.800781 645.675781 C 718.273438 640.726562 720.074219 636 720.074219 627 C 720.074219 612.824219 713.699219 602.550781 700.273438 594.898438 C 692.625 590.550781 686.023438 588.523438 665.175781 584.324219 C 655.125 582.300781 644.625 579.75 641.851562 578.773438 C 616.273438 569.476562 595.949219 539.023438 592.351562 504.523438 C 590.773438 489.824219 593.625 472.125 599.851562 457.800781 C 614.625 423.75 646.875 400.800781 684.375 397.574219 C 694.351562 396.675781 696.148438 396.675781 707.101562 397.5 Z M 707.101562 397.5 "/>
<path style=" stroke:none;fill-rule:nonzero;fill:rgb(0%,0%,0%);fill-opacity:1;" d="M 1068.75 400.5 C 1060.726562 400.800781 1053.074219 401.101562 1051.726562 401.175781 L 1049.398438 401.25 L 1049.324219 456.148438 C 1049.324219 486.375 1048.949219 525.976562 1048.5 544.125 C 1047.300781 598.273438 1047.375 657 1048.726562 663.75 C 1056.75 703.800781 1097.851562 734.398438 1150.875 739.574219 C 1185.824219 743.023438 1213.648438 733.726562 1234.949219 711.675781 C 1241.851562 704.476562 1245.675781 699 1250.175781 690.226562 C 1256.324219 677.925781 1258.425781 669.300781 1260.675781 646.875 C 1267.050781 584.023438 1268.699219 520.726562 1265.925781 442.875 C 1265.023438 417.300781 1264.875 416.476562 1259.175781 414.074219 C 1257.074219 413.25 1255.5 412.125 1255.5 411.449219 C 1255.5 407.476562 1251.375 404.550781 1243.125 402.675781 C 1234.5 400.726562 1200 401.851562 1181.925781 404.699219 L 1179.226562 405.148438 L 1178.699219 423.675781 C 1178.476562 433.800781 1177.875 471.824219 1177.5 508.125 C 1177.125 544.425781 1176.449219 587.101562 1175.925781 603 C 1175.175781 631.199219 1175.101562 631.949219 1173.300781 636 C 1170.824219 641.476562 1166.324219 645.898438 1160.699219 648.449219 C 1156.949219 650.175781 1155.074219 650.550781 1150.050781 650.550781 C 1143.226562 650.550781 1139.625 649.050781 1137.898438 645.523438 C 1136.851562 643.425781 1135.574219 626.625 1133.699219 592.125 C 1131.375 549.300781 1130.773438 518.476562 1131.375 473.25 C 1131.675781 449.101562 1131.976562 425.851562 1132.050781 421.574219 C 1132.125 412.800781 1132.425781 413.324219 1125.75 412.199219 C 1123.125 411.75 1123.125 411.75 1123.351562 408.148438 L 1123.648438 404.476562 L 1117.726562 403.273438 C 1104.375 400.425781 1091.25 399.675781 1068.75 400.5 Z M 1113.300781 406.800781 C 1116.148438 407.476562 1118.550781 408.074219 1118.625 408.148438 C 1118.773438 408.300781 1118.476562 414.449219 1118.101562 421.875 C 1117.050781 441 1117.050781 531.074219 1118.101562 555.75 C 1120.050781 600.226562 1122.375 632.773438 1123.949219 637.5 C 1127.625 648.75 1139.773438 656.25 1152.675781 655.273438 C 1163.699219 654.449219 1174.648438 646.648438 1178.175781 637.199219 C 1180.425781 631.050781 1181.101562 607.199219 1183.199219 448.800781 C 1183.5 428.101562 1183.949219 410.773438 1184.25 410.25 C 1185.300781 408.523438 1201.800781 407.023438 1221.375 406.949219 C 1238.851562 406.875 1240.5 407.023438 1245.449219 408.523438 L 1250.773438 410.25 L 1251.226562 417.148438 C 1253.398438 449.023438 1253.699219 535.648438 1251.75 572.25 C 1250.25 601.5 1247.851562 630.523438 1245.375 649.875 C 1242.523438 671.550781 1235.773438 686.851562 1222.949219 700.273438 C 1209.675781 714.300781 1193.550781 722.25 1172.625 725.25 C 1164.601562 726.375 1144.125 726.148438 1134.675781 724.800781 C 1113.675781 721.875 1094.851562 714.824219 1081.125 704.699219 C 1065 692.773438 1055.699219 678.300781 1052.925781 660.75 C 1051.949219 654.375 1052.324219 584.550781 1053.824219 511.875 C 1054.273438 488.773438 1054.5 455.476562 1054.273438 437.851562 L 1053.898438 405.824219 L 1060.726562 405.523438 C 1076.699219 404.851562 1108.050781 405.601562 1113.300781 406.800781 Z M 1113.300781 406.800781 "/>
</g>
</svg>
