<?xml version="1.0" standalone="no"?>
<!DOCTYPE svg PUBLIC "-//W3C//DTD SVG 20010904//EN"
 "http://www.w3.org/TR/2001/REC-SVG-20010904/DTD/svg10.dtd">
<svg version="1.0" xmlns="http://www.w3.org/2000/svg"
 width="2000.000000pt" height="1500.000000pt" viewBox="0 0 2000.000000 1500.000000"
 preserveAspectRatio="xMidYMid meet">

<g transform="translate(0.000000,1500.000000) scale(0.100000,-0.100000)"
fill="#000000" stroke="none">
<path d="M0 7500 l0 -7500 10000 0 10000 0 0 7500 0 7500 -10000 0 -10000 0 0
-7500z m4910 2219 c699 -63 1360 -473 1732 -1071 215 -347 318 -708 318 -1120
0 -367 -71 -677 -229 -1003 -117 -240 -252 -427 -433 -600 -183 -176 -348
-276 -579 -353 -816 -270 -1800 22 -2299 683 -161 213 -266 455 -316 730 -28
151 -25 443 5 585 103 484 398 872 815 1071 317 151 665 159 996 22 326 -134
563 -383 656 -689 25 -81 28 -104 28 -254 1 -151 -2 -174 -27 -265 -76 -274
-236 -482 -452 -585 -150 -72 -258 -91 -407 -71 -454 60 -745 438 -628 815 69
221 287 395 495 396 168 0 352 -116 423 -267 23 -50 27 -71 27 -153 0 -86 -3
-101 -32 -162 -37 -79 -99 -144 -168 -179 -73 -35 -188 -34 -267 3 -116 54
-175 151 -166 272 13 161 131 251 293 224 l40 -7 -40 14 c-152 52 -308 -50
-335 -219 -30 -185 105 -354 310 -387 283 -45 539 251 477 553 -23 115 -69
200 -157 289 -191 194 -460 230 -730 97 -68 -33 -102 -59 -171 -128 -73 -72
-94 -101 -132 -180 -60 -124 -77 -191 -84 -326 -20 -392 239 -733 654 -861 81
-25 102 -27 268 -27 199 -1 274 13 420 76 318 138 570 474 636 848 17 96 17
303 0 400 -71 408 -343 776 -712 964 -122 62 -287 118 -421 143 -129 24 -418
24 -548 0 -567 -105 -1030 -527 -1228 -1122 -152 -454 -121 -929 88 -1364 225
-465 607 -810 1117 -1007 150 -58 343 -107 506 -129 215 -29 594 -12 767 34
121 32 129 34 91 16 -98 -45 -363 -106 -546 -126 -135 -14 -422 -6 -555 16
-580 96 -1093 402 -1434 855 -212 282 -352 608 -421 985 -22 119 -31 460 -16
591 57 479 272 927 619 1286 196 203 397 350 647 473 356 176 731 249 1105
214z m8795 -638 c11 -22 12 -37 5 -55 -14 -39 -38 -276 -55 -541 -18 -297 -38
-811 -34 -847 l4 -27 115 75 c152 99 299 182 385 216 57 22 86 27 156 28 214
1 395 -94 479 -251 70 -131 78 -224 51 -544 -57 -675 -60 -854 -17 -920 33
-50 61 -60 168 -57 96 3 98 2 98 -20 0 -26 -26 -168 -31 -172 -2 -1 -85 1
-184 5 -189 7 -360 -1 -510 -26 -125 -20 -117 -23 -110 38 13 117 11 113 63
132 80 31 128 70 157 129 l26 54 16 478 c16 511 14 557 -29 671 -29 78 -104
153 -178 179 -149 52 -361 -5 -591 -158 l-77 -51 -7 -434 c-9 -545 -5 -704 20
-756 27 -58 62 -72 177 -69 53 1 99 -1 101 -5 5 -8 -27 -181 -34 -186 -2 -2
-87 0 -189 4 -102 4 -281 5 -399 1 l-214 -5 6 34 c4 19 9 58 13 86 6 51 8 53
43 59 70 12 130 45 153 83 l23 36 0 1235 c0 1162 -1 1237 -18 1267 -24 45 -69
66 -157 72 -84 7 -79 -1 -65 102 l6 45 92 13 c149 20 474 88 524 110 1 1 9
-12 18 -28z m-2979 -196 c88 -26 138 -100 138 -205 0 -203 -240 -324 -384
-194 -133 120 -59 360 125 405 47 11 68 10 121 -6z m-2561 -217 c165 0 397 2
515 7 304 10 427 -9 609 -97 87 -42 116 -62 180 -126 121 -122 171 -247 171
-430 0 -311 -173 -567 -517 -762 -51 -29 -93 -55 -93 -58 0 -8 491 -783 534
-842 112 -155 253 -240 397 -240 63 0 68 -8 54 -91 -7 -38 -14 -71 -16 -73 -6
-4 -349 -47 -379 -46 -48 0 -146 57 -219 126 -100 93 -152 177 -421 666 l-235
428 -176 0 -176 0 -7 -352 c-10 -569 -1 -596 208 -620 57 -6 96 -15 96 -22 0
-6 -7 -47 -16 -91 l-16 -80 -467 0 -467 0 18 89 c10 49 19 90 21 92 1 1 38 9
81 17 148 30 205 76 225 180 6 32 11 430 13 1032 3 1076 4 1049 -55 1085 -26
17 -51 20 -139 20 -123 0 -116 -7 -98 96 19 109 18 106 48 100 15 -4 162 -7
327 -8z m2710 -757 c3 -11 -1 -57 -9 -103 -43 -238 -76 -788 -76 -1253 1 -381
11 -402 196 -398 121 3 114 12 86 -116 l-17 -74 -120 4 c-234 8 -388 2 -534
-20 -79 -12 -145 -20 -148 -17 -2 2 -1 40 2 84 l7 80 60 22 c69 25 121 67 151
124 22 41 22 45 25 640 3 679 2 688 -59 750 l-39 39 -81 -5 -80 -5 7 71 c4 39
8 73 10 74 1 2 54 13 116 23 62 11 190 37 283 58 203 46 212 47 220 22z m1613
4 c113 -20 203 -46 209 -60 2 -7 -7 -72 -22 -145 -14 -73 -32 -187 -39 -252
-8 -66 -16 -121 -18 -123 -2 -2 -35 -6 -74 -10 l-72 -7 -4 118 c-4 127 -19
174 -70 220 -106 97 -384 100 -515 5 -62 -45 -86 -86 -91 -153 -4 -48 0 -67
22 -113 48 -97 128 -157 451 -337 243 -136 387 -254 441 -363 39 -81 46 -204
16 -302 -66 -217 -289 -391 -572 -449 -68 -13 -116 -16 -250 -11 -91 3 -196
13 -235 22 -115 25 -194 55 -200 74 -3 9 1 78 9 152 8 74 17 175 21 224 3 50
8 115 11 147 6 62 -4 55 112 73 l42 7 0 -65 c0 -80 23 -202 48 -260 46 -103
138 -161 283 -177 149 -17 289 17 373 91 60 53 77 88 77 155 0 133 -98 221
-481 429 -168 91 -257 154 -334 235 -86 92 -118 161 -124 269 -8 138 28 246
118 359 94 119 282 220 468 252 81 13 312 11 400 -5z m3462 -6 c9 -15 8 -37
-4 -87 -55 -245 -109 -1062 -85 -1281 24 -212 119 -310 309 -319 140 -7 204
17 408 151 l122 81 0 525 c0 349 -4 540 -11 566 -23 86 -77 115 -210 115 l-91
0 6 31 c3 17 6 46 6 65 0 45 19 60 87 68 32 3 172 29 312 58 247 49 255 50
268 32 8 -11 12 -30 9 -44 -45 -206 -86 -823 -86 -1310 0 -183 1 -199 23 -240
32 -65 75 -90 154 -90 70 0 137 23 209 71 l41 28 20 -22 c11 -12 23 -28 27
-35 10 -17 -88 -148 -178 -237 -96 -95 -127 -109 -231 -103 -174 11 -278 104
-315 281 -6 31 -17 57 -23 57 -7 0 -44 -23 -82 -51 -134 -99 -280 -193 -372
-241 -90 -46 -96 -48 -176 -48 -285 1 -477 145 -516 388 -6 35 -5 269 1 609
11 616 9 639 -46 697 -38 41 -86 53 -157 39 l-50 -10 7 71 c3 39 9 74 13 77 3
4 67 19 141 33 74 14 200 42 280 60 175 41 176 41 190 15z"/>
<path d="M8471 8481 c-12 -12 -21 -40 -25 -77 -9 -87 -34 -662 -38 -864 l-3
-175 224 -22 223 -22 67 33 c171 87 296 225 348 385 8 25 17 100 20 166 9 194
-31 310 -144 415 -100 94 -238 147 -438 170 -143 16 -212 13 -234 -9z"/>
</g>
</svg>
